<svg xmlns="http://www.w3.org/2000/svg" viewBox="0 0 100 100" fill="none">
  <defs>
    <linearGradient id="dvBlueCyanGrad" x1="10" y1="90" x2="80" y2="20" gradientUnits="userSpaceOnUse">
      <stop offset="0%" stop-color="#2563EB" />
      <stop offset="50%" stop-color="#38BDF8" />
      <stop offset="100%" stop-color="#8B5CF6" />
    </linearGradient>
    <linearGradient id="barGrad1" x1="0" y1="1" x2="0" y2="0">
      <stop offset="0%" stop-color="#0EA5E9" />
      <stop offset="100%" stop-color="#38BDF8" />
    </linearGradient>
    <linearGradient id="barGrad2" x1="0" y1="1" x2="0" y2="0">
      <stop offset="0%" stop-color="#2563EB" />
      <stop offset="100%" stop-color="#60A5FA" />
    </linearGradient>
    <linearGradient id="barGrad3" x1="0" y1="1" x2="0" y2="0">
      <stop offset="0%" stop-color="#7C3AED" />
      <stop offset="100%" stop-color="#C084FC" />
    </linearGradient>
  </defs>
  <g>
    <!-- Letter D -->
    <path
      d="M 12 40 C 12 36, 16 36, 22 36 L 36 36 C 50 36, 58 44, 58 56 C 58 68, 50 76, 36 76 L 22 76 C 16 76, 12 76, 12 72 Z M 26 48 L 26 64 L 35 64 C 42 64, 46 61, 46 56 C 46 51, 42 48, 35 48 Z"
      fill="url(#dvBlueCyanGrad)"
    />
    <!-- Letter V -->
    <path
      d="M 52 76 L 66 40 L 78 40 L 68 74 C 66 79, 62 82, 58 82 C 54 82, 50 79, 48 74 L 42 58 L 51 58 Z"
      fill="url(#dvBlueCyanGrad)"
    />
    <!-- Rising Bar Chart Peak 1 (Short - Cyan) -->
    <rect x="49" y="32" width="10" height="20" rx="3" fill="url(#barGrad1)" />
    <!-- Rising Bar Chart Peak 2 (Medium - Blue) -->
    <rect x="63" y="20" width="10" height="32" rx="3" fill="url(#barGrad2)" />
    <!-- Rising Bar Chart Peak 3 (Tall - Violet) -->
    <rect x="77" y="8" width="10" height="44" rx="3" fill="url(#barGrad3)" />
  </g>
</svg>
