<svg xmlns="http://www.w3.org/2000/svg" viewBox="0 0 600 140" width="600" height="140" fill="none">
  <defs>
    <linearGradient id="cardBg" x1="0" y1="0" x2="600" y2="140" gradientUnits="userSpaceOnUse">
      <stop offset="0%" stop-color="#0F172A" />
      <stop offset="100%" stop-color="#080D1A" />
    </linearGradient>
    <linearGradient id="iconBgGradC" x1="0" y1="0" x2="80" y2="80" gradientUnits="userSpaceOnUse">
      <stop offset="0%" stop-color="#1E293B" />
      <stop offset="100%" stop-color="#0F172A" />
    </linearGradient>
    <linearGradient id="dvGradC" x1="10" y1="90" x2="80" y2="20" gradientUnits="userSpaceOnUse">
      <stop offset="0%" stop-color="#2563EB" />
      <stop offset="50%" stop-color="#38BDF8" />
      <stop offset="100%" stop-color="#8B5CF6" />
    </linearGradient>
    <linearGradient id="bar1GradC" x1="0" y1="1" x2="0" y2="0">
      <stop offset="0%" stop-color="#0EA5E9" />
      <stop offset="100%" stop-color="#38BDF8" />
    </linearGradient>
    <linearGradient id="bar2GradC" x1="0" y1="1" x2="0" y2="0">
      <stop offset="0%" stop-color="#2563EB" />
      <stop offset="100%" stop-color="#60A5FA" />
    </linearGradient>
    <linearGradient id="bar3GradC" x1="0" y1="1" x2="0" y2="0">
      <stop offset="0%" stop-color="#7C3AED" />
      <stop offset="100%" stop-color="#C084FC" />
    </linearGradient>
    <linearGradient id="vistaGradC" x1="0" y1="0" x2="1" y2="0">
      <stop offset="0%" stop-color="#38BDF8" />
      <stop offset="100%" stop-color="#818CF8" />
    </linearGradient>
    <filter id="glowC" x="-20%" y="-20%" width="140%" height="140%">
      <feDropShadow dx="0" dy="3" stdDeviation="5" flood-color="#38BDF8" flood-opacity="0.4" />
    </filter>
  </defs>

  <!-- Dark Card Container with subtle rounded border -->
  <rect x="1" y="1" width="598" height="138" rx="18" fill="url(#cardBg)" stroke="#30363D" stroke-width="1.5" />

  <!-- Brand Mark Squircle Container -->
  <g transform="translate(32, 28)">
    <rect x="0" y="0" width="84" height="84" rx="20" fill="url(#iconBgGradC)" stroke="#334155" stroke-width="1.5" />
    <g transform="translate(4, 4) scale(0.76)" filter="url(#glowC)">
      <path d="M 12 40 C 12 36, 16 36, 22 36 L 36 36 C 50 36, 58 44, 58 56 C 58 68, 50 76, 36 76 L 22 76 C 16 76, 12 76, 12 72 Z M 26 48 L 26 64 L 35 64 C 42 64, 46 61, 46 56 C 46 51, 42 48, 35 48 Z" fill="url(#dvGradC)" />
      <path d="M 52 76 L 66 40 L 78 40 L 68 74 C 66 79, 62 82, 58 82 C 54 82, 50 79, 48 74 L 42 58 L 51 58 Z" fill="url(#dvGradC)" />
      <rect x="49" y="32" width="10" height="20" rx="3" fill="url(#bar1GradC)" />
      <rect x="63" y="20" width="10" height="32" rx="3" fill="url(#bar2GradC)" />
      <rect x="77" y="8" width="10" height="44" rx="3" fill="url(#bar3GradC)" />
    </g>
  </g>

  <!-- Typography -->
  <text x="138" y="87" font-family="-apple-system, BlinkMacSystemFont, 'Segoe UI', Inter, Roboto, sans-serif" font-size="54" font-weight="800" letter-spacing="-0.03em">
    <tspan fill="#FAFAFA">Data</tspan><tspan fill="url(#vistaGradC)">Vista</tspan>
  </text>
</svg>